<?xml version="1.0" standalone="no"?><!DOCTYPE svg PUBLIC "-//W3C//DTD SVG 1.1//EN" "http://www.w3.org/Graphics/SVG/1.1/DTD/svg11.dtd"><svg t="1760247062448" class="icon" viewBox="0 0 1024 1024" version="1.1" xmlns="http://www.w3.org/2000/svg" p-id="7108" xmlns:xlink="http://www.w3.org/1999/xlink" width="200" height="200"><path d="M653.88544 0a92.16 92.16 0 0 1 65.09568 26.9312l187.61728 187.21792a92.16 92.16 0 0 1 27.05408 65.2288v120.6272A80.10752 80.10752 0 0 1 1013.76 480.09216v319.7952a80.10752 80.10752 0 0 1-77.55776 80.06656l-2.54976 0.03072v48.00512c0 53.02272-43.02848 96-96.12288 96H196.7104c-53.0944 0-96.12288-42.97728-96.12288-96v-48.00512A80.10752 80.10752 0 0 1 20.48 799.8976v-319.7952a80.10752 80.10752 0 0 1 77.55776-80.06656l2.54976-0.04096V96C100.58752 42.97728 143.616 0 196.7104 0h457.17504zM837.5296 879.99488H196.7104v17.28512a30.72 30.72 0 0 0 30.72 30.72h579.3792a30.72 30.72 0 0 0 30.72-30.72v-17.28512zM361.85088 559.49312h-66.26304l-34.2016 159.86688h39.26016l20.25472-93.82912c0.36864-1.72032 1.15712-5.98016 2.3552-12.76928l0.96256-5.4272 1.06496-6.08256 2.47808-14.19264h1.91488l5.7344 132.3008H374.784l62.21824-132.3008h1.34144a914.97472 914.97472 0 0 0-4.89472 18.90304 366.3872 366.3872 0 0 0-3.76832 16.87552l-20.13184 96.52224h39.48544l34.53952-159.86688H414.8224l-37.00736 80.55808a346.624 346.624 0 0 0-7.59808 17.48992c-2.14016 5.36576-3.92192 10.4448-5.34528 15.24736 0.22528-3.97312 0.39936-7.5776 0.512-10.8032 0.1024-3.2256 0.16384-6.07232 0.16384-8.5504 0-2.92864-0.02048-5.34528-0.0512-7.26016a229.376 229.376 0 0 0-0.17408-5.44768l-3.4816-81.23392z m199.5776 0h-47.2576L480.3072 719.36h42.41408l12.71808-58.2656c4.94592 0.21504 9.3184 0.38912 13.1072 0.50176 3.7888 0.1024 6.98368 0.16384 9.61536 0.16384 21.4528 0 38.28736-5.25312 50.51392-15.74912s18.3296-24.90368 18.3296-43.20256c0-14.848-5.30432-25.78432-15.91296-32.78848-10.60864-7.0144-27.16672-10.52672-49.664-10.52672z m199.90528 0h-46.7968l-84.48 99.45088-4.61824 28.35456H694.272l-6.63552 32.06144h39.8336l6.62528-32.06144H756.736l6.18496-28.35456h-22.7328l21.15584-99.45088z m-41.0624 28.57984L703.2832 658.944h-40.83712l57.82528-70.87104z m-159.85664 0.22528c8.0896 0 14.2848 1.60768 18.55488 4.83328 4.28032 3.2256 6.42048 7.91552 6.42048 14.06976 0 7.49568-2.85696 13.3632-8.5504 17.60256-5.70368 4.23936-13.69088 6.3488-23.9616 6.3488h-11.264l8.89856-42.8544h9.90208z m47.9232-499.97824H227.4304a30.72 30.72 0 0 0-30.72 30.72v280.95488h640.8192v-81.5616H700.52864c-50.8928-0.01024-92.14976-41.2672-92.16-92.16l-0.03072-137.95328z m96.12288 59.84256v58.91072a15.36 15.36 0 0 0 15.36 15.36h59.0848l-74.4448-74.27072z" fill="#FF527B" p-id="7109"></path></svg>